<mxfile host="app.diagrams.net" agent="Mozilla/5.0 (Windows NT 10.0; Win64; x64; rv:132.0) Gecko/20100101 Firefox/132.0" version="24.8.3">
  <diagram name="Page-1" id="1_BgnP57ZcxrARKaB3St">
    <mxGraphModel dx="1366" dy="710" grid="1" gridSize="10" guides="1" tooltips="1" connect="1" arrows="1" fold="1" page="1" pageScale="1" pageWidth="3300" pageHeight="4681" math="0" shadow="0">
      <root>
        <mxCell id="0" />
        <mxCell id="1" parent="0" />
        <mxCell id="lv5MHRsAPEONxXm91Ya_-1" value="&lt;br&gt;&lt;div&gt;&lt;font style=&quot;font-size: 12px;&quot;&gt;&lt;span dir=&quot;ltr&quot; style=&quot;left: 56.4398px; top: 219.297px; font-family: serif;&quot;&gt;&lt;/span&gt;&lt;span dir=&quot;ltr&quot; style=&quot;left: 100.64px; top: 220.444px; font-family: monospace; transform: scaleX(0.997158);&quot;&gt;Work on this mandatory in your groups&lt;/span&gt;&lt;span dir=&quot;ltr&quot; style=&quot;left: 56.4398px; top: 258.297px; font-family: serif;&quot;&gt;&lt;br&gt;&lt;/span&gt;&lt;/font&gt;&lt;/div&gt;&lt;div&gt;&lt;font style=&quot;font-size: 12px;&quot;&gt;&lt;span dir=&quot;ltr&quot; style=&quot;left: 56.4398px; top: 258.297px; font-family: serif;&quot;&gt;●&lt;/span&gt;&lt;span dir=&quot;ltr&quot; style=&quot;left: 100.64px; top: 259.444px; font-family: monospace; transform: scaleX(0.997493);&quot;&gt;The groups should consist of 3&lt;/span&gt;&lt;span dir=&quot;ltr&quot; style=&quot;left: 569.439px; top: 259.444px; font-family: monospace; transform: scaleX(0.997928);&quot;&gt;-4 members (&lt;/span&gt;&lt;span dir=&quot;ltr&quot; style=&quot;left: 757.021px; top: 259.444px; font-family: monospace; transform: scaleX(0.995911);&quot;&gt;register&lt;/span&gt;&lt;span dir=&quot;ltr&quot; style=&quot;left: 897.629px; top: 259.444px; font-family: monospace; transform: scaleX(0.998387);&quot;&gt;your groups in &lt;/span&gt;&lt;span dir=&quot;ltr&quot; style=&quot;left: 100.64px; top: 298.636px; font-family: monospace; transform: scaleX(0.997329);&quot;&gt;the excel sheet in our Teams room&lt;/span&gt;&lt;span dir=&quot;ltr&quot; style=&quot;left: 616.242px; top: 298.636px; font-family: monospace;&quot;&gt;)&lt;/span&gt;&lt;span dir=&quot;ltr&quot; style=&quot;left: 100.64px; top: 337.63px; font-family: monospace; transform: scaleX(0.997476);&quot;&gt;You should still hand in individually though &lt;/span&gt;&lt;span dir=&quot;ltr&quot; style=&quot;left: 803.852px; top: 337.63px; font-family: monospace; transform: scaleX(0.997746);&quot;&gt;fronter&lt;/span&gt;&lt;span dir=&quot;ltr&quot; style=&quot;left: 56.4398px; top: 375.697px; font-family: serif;&quot;&gt;●&lt;/span&gt;&lt;span dir=&quot;ltr&quot; style=&quot;left: 100.64px; top: 376.844px; font-family: monospace; transform: scaleX(0.997418);&quot;&gt;Hand in date is &lt;/span&gt;&lt;span dir=&quot;ltr&quot; style=&quot;left: 350.645px; top: 376.844px; font-family: monospace; transform: scaleX(0.997844);&quot;&gt;16 /12 -2024 &lt;/span&gt;&lt;span dir=&quot;ltr&quot; style=&quot;left: 522.664px; top: 376.844px; font-family: monospace; transform: scaleX(0.996916);&quot;&gt;before 23:59&lt;/span&gt;&lt;/font&gt;&lt;/div&gt;&lt;div&gt;&lt;font style=&quot;font-size: 12px;&quot;&gt;&lt;span dir=&quot;ltr&quot; style=&quot;left: 56.4398px; top: 414.697px; font-family: serif;&quot;&gt;●&lt;/span&gt;&lt;span dir=&quot;ltr&quot; style=&quot;left: 100.64px; top: 415.844px; font-family: monospace; transform: scaleX(0.997488);&quot;&gt;I will have a session with each individual group on &lt;/span&gt;&lt;span dir=&quot;ltr&quot; style=&quot;left: 913.448px; top: 415.844px; font-family: monospace; transform: scaleX(0.995879);&quot;&gt;08/11/2024&lt;/span&gt;&lt;span dir=&quot;ltr&quot; style=&quot;left: 1085.04px; top: 415.844px; font-family: monospace; transform: scaleX(1.00246);&quot;&gt;and &lt;/span&gt;&lt;span dir=&quot;ltr&quot; style=&quot;left: 100.64px; top: 455.036px; font-family: monospace; transform: scaleX(0.995785);&quot;&gt;10/12 /2024&lt;/span&gt;&lt;span dir=&quot;ltr&quot; style=&quot;left: 272.233px; top: 455.036px; font-family: monospace; transform: scaleX(0.997854);&quot;&gt;where you can show me your progress and get some &lt;/span&gt;&lt;span dir=&quot;ltr&quot; style=&quot;left: 100.64px; top: 494.029px; font-family: monospace; transform: scaleX(0.995911);&quot;&gt;feedback&lt;/span&gt;&lt;span dir=&quot;ltr&quot; style=&quot;left: 56.4398px; top: 532.097px; font-family: serif;&quot;&gt;&lt;br&gt;&lt;/span&gt;&lt;/font&gt;&lt;/div&gt;&lt;div&gt;&lt;font style=&quot;font-size: 12px;&quot;&gt;&lt;span dir=&quot;ltr&quot; style=&quot;left: 56.4398px; top: 532.097px; font-family: serif;&quot;&gt;●&lt;/span&gt;&lt;span dir=&quot;ltr&quot; style=&quot;left: 100.64px; top: 533.244px; font-family: monospace; transform: scaleX(0.997361);&quot;&gt;The better you do this, the better you are prepared to the exam.&lt;/span&gt;&lt;/font&gt;&lt;/div&gt;&lt;div&gt;&lt;font style=&quot;font-size: 12px;&quot;&gt;&lt;span dir=&quot;ltr&quot; style=&quot;left: 100.64px; top: 533.244px; font-family: monospace; transform: scaleX(0.997361);&quot;&gt;&lt;br&gt;&lt;/span&gt;&lt;/font&gt;&lt;/div&gt;&lt;div&gt;&lt;font style=&quot;font-size: 12px;&quot;&gt;&lt;span dir=&quot;ltr&quot; style=&quot;left: 100.64px; top: 533.244px; font-family: monospace; transform: scaleX(0.997361);&quot;&gt;&lt;br&gt;&lt;/span&gt;&lt;/font&gt;&lt;/div&gt;&lt;div&gt;&lt;font style=&quot;font-size: 12px;&quot;&gt;&lt;span dir=&quot;ltr&quot; style=&quot;left: 100.64px; top: 533.244px; font-family: monospace; transform: scaleX(0.997361);&quot;&gt;&lt;br&gt;&lt;/span&gt;&lt;/font&gt;&lt;/div&gt;&lt;div&gt;&lt;font style=&quot;font-size: 12px;&quot;&gt;&lt;span dir=&quot;ltr&quot; style=&quot;left: 100.64px; top: 533.244px; font-family: monospace; transform: scaleX(0.997361);&quot;&gt;&lt;br&gt;&lt;/span&gt;&lt;/font&gt;&lt;/div&gt;&lt;div&gt;&lt;br&gt;&lt;/div&gt;" style="text;html=1;whiteSpace=wrap;overflow=hidden;rounded=0;" vertex="1" parent="1">
          <mxGeometry x="70" y="20" width="730" height="490" as="geometry" />
        </mxCell>
      </root>
    </mxGraphModel>
  </diagram>
</mxfile>
